<?xml version="1.0" encoding="UTF-8" standalone="no"?>
<!DOCTYPE svg PUBLIC "-//W3C//DTD SVG 1.1//EN" "http://www.w3.org/Graphics/SVG/1.1/DTD/svg11.dtd">
<svg xmlns="http://www.w3.org/2000/svg" version="1.1" viewBox="0.00 0.00 472.00 283.00">
<g stroke-width="2.00" fill="none" stroke-linecap="butt">
<path stroke="#770e12"  d="
  M 111.25 258.24
  L 343.21 258.24
  A 1.95 1.94 -68.5 0 0 344.64 257.61
  L 450.76 142.20
  A 0.70 0.69 -45.3 0 0 450.76 141.25
  L 344.39 25.57
  A 1.19 1.17 -20.7 0 0 343.51 25.18
  L 111.25 25.20"
/>
<path stroke="#770e12" d="
  M 252.48 158.02
  L 252.48 181.57
  A 1.01 0.99 76.3 0 1 251.95 182.46
  Q 248.51 184.32 244.78 184.78
  C 243.05 184.99 241.29 185.58 239.59 185.50
  Q 235.49 185.29 231.54 184.44
  C 220.60 182.06 213.22 174.16 209.86 163.58
  Q 206.06 151.63 207.83 138.71
  Q 209.44 126.93 215.56 119.01
  C 229.04 101.56 253.57 105.91 269.65 116.56
  C 273.23 118.93 275.68 115.93 276.03 112.64
  C 276.50 108.27 277.23 99.20 273.76 95.68
  C 271.80 93.70 268.72 91.83 266.16 90.83
  Q 246.97 83.29 227.09 87.06
  C 201.94 91.82 187.03 110.93 183.73 135.86
  Q 181.57 152.12 185.04 166.58
  Q 192.09 195.95 218.89 204.35
  Q 226.41 206.71 235.24 207.11
  Q 243.37 207.48 252.20 205.98
  Q 261.29 204.44 270.03 201.27
  Q 276.17 199.04 276.17 191.94
  Q 276.20 168.83 276.16 145.38
  Q 276.15 140.82 272.19 138.11
  C 271.42 137.58 270.33 137.55 269.43 137.54
  Q 252.22 137.32 232.89 137.57
  C 228.99 137.62 228.94 145.52 228.93 148.04
  C 228.92 150.96 229.21 155.19 231.65 157.03
  A 1.41 1.38 -26.0 0 0 232.49 157.31
  L 251.77 157.31
  Q 252.48 157.31 252.48 158.02"
/>
<path stroke="#808080"  d="
  M 254.29 155.65
  L 254.29 183.24
  Q 254.29 183.78 253.82 184.05
  Q 248.54 187.04 242.45 187.45
  C 228.50 188.39 216.75 182.94 210.48 170.65
  Q 206.19 162.24 205.74 153.89
  Q 205.51 149.67 205.03 145.77
  C 204.95 145.12 205.46 144.55 205.46 143.81
  Q 205.55 130.54 211.76 120.65
  Q 222.43 103.67 244.04 105.09
  Q 257.63 105.98 271.22 114.83
  A 1.47 1.47 0.0 0 0 273.39 114.13
  Q 273.91 112.80 273.96 111.19
  Q 274.09 106.60 273.91 101.62
  Q 273.81 98.77 272.01 97.13
  Q 268.59 94.00 263.16 92.12
  Q 247.67 86.76 231.73 88.61
  C 209.26 91.22 193.19 105.58 187.47 127.97
  Q 182.57 147.18 187.46 167.52
  C 191.37 183.78 202.41 196.44 218.39 201.73
  Q 225.36 204.04 231.70 204.52
  Q 250.36 205.92 268.24 199.46
  C 271.17 198.40 273.83 196.87 273.84 193.52
  Q 273.86 167.43 273.82 144.87
  C 273.82 141.06 270.72 139.45 267.23 139.48
  Q 249.88 139.62 234.74 139.43
  A 3.26 3.26 0.0 0 0 231.47 142.24
  Q 230.74 147.47 231.56 153.31
  A 1.97 1.97 0.0 0 0 233.51 155.00
  L 253.65 155.00
  Q 254.29 155.00 254.29 155.65"
/>
</g>
<path fill="#000000" d="
  M 347.15 259.99
  C 346.28 260.94 344.49 261.73 343.21 261.73
  Q 182.23 261.76 21.46 261.75
  A 3.71 3.71 0.0 0 1 17.75 258.04
  L 17.75 25.29
  A 3.54 3.54 0.0 0 1 21.29 21.75
  Q 177.80 21.75 343.50 21.75
  Q 345.44 21.75 347.27 23.73
  Q 400.27 81.24 452.97 138.56
  Q 455.89 141.73 452.97 144.91
  Q 399.49 203.05 347.15 259.99
  Z
  M 111.25 258.24
  L 343.21 258.24
  A 1.95 1.94 -68.5 0 0 344.64 257.61
  L 450.76 142.20
  A 0.70 0.69 -45.3 0 0 450.76 141.25
  L 344.39 25.57
  A 1.19 1.17 -20.7 0 0 343.51 25.18
  L 111.25 25.20
  L 21.74 25.28
  Q 21.25 25.28 21.25 25.76
  L 21.25 257.74
  A 0.51 0.51 0.0 0 0 21.76 258.25
  L 111.25 258.24
  Z"
/>
<path fill="#ed1c24" d="
  M 111.25 25.20
  L 343.51 25.18
  A 1.19 1.17 -20.7 0 1 344.39 25.57
  L 450.76 141.25
  A 0.70 0.69 -45.3 0 1 450.76 142.20
  L 344.64 257.61
  A 1.95 1.94 -68.5 0 1 343.21 258.24
  L 111.25 258.24
  L 111.25 25.20
  Z
  M 252.48 158.02
  L 252.48 181.57
  A 1.01 0.99 76.3 0 1 251.95 182.46
  Q 248.51 184.32 244.78 184.78
  C 243.05 184.99 241.29 185.58 239.59 185.50
  Q 235.49 185.29 231.54 184.44
  C 220.60 182.06 213.22 174.16 209.86 163.58
  Q 206.06 151.63 207.83 138.71
  Q 209.44 126.93 215.56 119.01
  C 229.04 101.56 253.57 105.91 269.65 116.56
  C 273.23 118.93 275.68 115.93 276.03 112.64
  C 276.50 108.27 277.23 99.20 273.76 95.68
  C 271.80 93.70 268.72 91.83 266.16 90.83
  Q 246.97 83.29 227.09 87.06
  C 201.94 91.82 187.03 110.93 183.73 135.86
  Q 181.57 152.12 185.04 166.58
  Q 192.09 195.95 218.89 204.35
  Q 226.41 206.71 235.24 207.11
  Q 243.37 207.48 252.20 205.98
  Q 261.29 204.44 270.03 201.27
  Q 276.17 199.04 276.17 191.94
  Q 276.20 168.83 276.16 145.38
  Q 276.15 140.82 272.19 138.11
  C 271.42 137.58 270.33 137.55 269.43 137.54
  Q 252.22 137.32 232.89 137.57
  C 228.99 137.62 228.94 145.52 228.93 148.04
  C 228.92 150.96 229.21 155.19 231.65 157.03
  A 1.41 1.38 -26.0 0 0 232.49 157.31
  L 251.77 157.31
  Q 252.48 157.31 252.48 158.02
  Z"
/>
<path fill="#000000" d="
  M 77.69 84.74
  L 56.97 84.74
  Q 56.41 84.74 56.24 85.27
  L 52.75 96.13
  A 3.00 2.98 -81.4 0 1 49.93 98.22
  L 43.86 98.28
  Q 40.17 98.32 41.38 94.84
  L 59.89 41.59
  A 3.09 3.09 0.0 0 1 62.81 39.51
  L 73.25 39.54
  A 2.81 2.81 0.0 0 1 75.90 41.42
  Q 84.74 66.65 94.35 94.41
  Q 94.69 95.38 94.73 96.47
  A 1.59 1.58 -3.6 0 1 93.28 98.11
  Q 88.81 98.49 84.15 98.08
  A 2.12 2.09 83.1 0 1 82.34 96.64
  L 78.59 85.39
  Q 78.37 84.74 77.69 84.74
  Z
  M 59.30 75.12
  A 0.31 0.31 0.0 0 0 59.59 75.53
  L 75.10 75.50
  A 0.31 0.31 0.0 0 0 75.39 75.10
  L 67.60 51.61
  A 0.31 0.31 0.0 0 0 67.01 51.61
  L 59.30 75.12
  Z"
/>
<path fill="#000000" d="
  M 251.77 157.31
  L 232.49 157.31
  A 1.41 1.38 -26.0 0 1 231.65 157.03
  C 229.21 155.19 228.92 150.96 228.93 148.04
  C 228.94 145.52 228.99 137.62 232.89 137.57
  Q 252.22 137.32 269.43 137.54
  C 270.33 137.55 271.42 137.58 272.19 138.11
  Q 276.15 140.82 276.16 145.38
  Q 276.20 168.83 276.17 191.94
  Q 276.17 199.04 270.03 201.27
  Q 261.29 204.44 252.20 205.98
  Q 243.37 207.48 235.24 207.11
  Q 226.41 206.71 218.89 204.35
  Q 192.09 195.95 185.04 166.58
  Q 181.57 152.12 183.73 135.86
  C 187.03 110.93 201.94 91.82 227.09 87.06
  Q 246.97 83.29 266.16 90.83
  C 268.72 91.83 271.80 93.70 273.76 95.68
  C 277.23 99.20 276.50 108.27 276.03 112.64
  C 275.68 115.93 273.23 118.93 269.65 116.56
  C 253.57 105.91 229.04 101.56 215.56 119.01
  Q 209.44 126.93 207.83 138.71
  Q 206.06 151.63 209.86 163.58
  C 213.22 174.16 220.60 182.06 231.54 184.44
  Q 235.49 185.29 239.59 185.50
  C 241.29 185.58 243.05 184.99 244.78 184.78
  Q 248.51 184.32 251.95 182.46
  A 1.01 0.99 76.3 0 0 252.48 181.57
  L 252.48 158.02
  Q 252.48 157.31 251.77 157.31
  Z
  M 254.29 155.65
  L 254.29 183.24
  Q 254.29 183.78 253.82 184.05
  Q 248.54 187.04 242.45 187.45
  C 228.50 188.39 216.75 182.94 210.48 170.65
  Q 206.19 162.24 205.74 153.89
  Q 205.51 149.67 205.03 145.77
  C 204.95 145.12 205.46 144.55 205.46 143.81
  Q 205.55 130.54 211.76 120.65
  Q 222.43 103.67 244.04 105.09
  Q 257.63 105.98 271.22 114.83
  A 1.47 1.47 0.0 0 0 273.39 114.13
  Q 273.91 112.80 273.96 111.19
  Q 274.09 106.60 273.91 101.62
  Q 273.81 98.77 272.01 97.13
  Q 268.59 94.00 263.16 92.12
  Q 247.67 86.76 231.73 88.61
  C 209.26 91.22 193.19 105.58 187.47 127.97
  Q 182.57 147.18 187.46 167.52
  C 191.37 183.78 202.41 196.44 218.39 201.73
  Q 225.36 204.04 231.70 204.52
  Q 250.36 205.92 268.24 199.46
  C 271.17 198.40 273.83 196.87 273.84 193.52
  Q 273.86 167.43 273.82 144.87
  C 273.82 141.06 270.72 139.45 267.23 139.48
  Q 249.88 139.62 234.74 139.43
  A 3.26 3.26 0.0 0 0 231.47 142.24
  Q 230.74 147.47 231.56 153.31
  A 1.97 1.97 0.0 0 0 233.51 155.00
  L 253.65 155.00
  Q 254.29 155.00 254.29 155.65
  Z"
/>
<path fill="#ffffff" d="
  M 253.65 155.00
  L 233.51 155.00
  A 1.97 1.97 0.0 0 1 231.56 153.31
  Q 230.74 147.47 231.47 142.24
  A 3.26 3.26 0.0 0 1 234.74 139.43
  Q 249.88 139.62 267.23 139.48
  C 270.72 139.45 273.82 141.06 273.82 144.87
  Q 273.86 167.43 273.84 193.52
  C 273.83 196.87 271.17 198.40 268.24 199.46
  Q 250.36 205.92 231.70 204.52
  Q 225.36 204.04 218.39 201.73
  C 202.41 196.44 191.37 183.78 187.46 167.52
  Q 182.57 147.18 187.47 127.97
  C 193.19 105.58 209.26 91.22 231.73 88.61
  Q 247.67 86.76 263.16 92.12
  Q 268.59 94.00 272.01 97.13
  Q 273.81 98.77 273.91 101.62
  Q 274.09 106.60 273.96 111.19
  Q 273.91 112.80 273.39 114.13
  A 1.47 1.47 0.0 0 1 271.22 114.83
  Q 257.63 105.98 244.04 105.09
  Q 222.43 103.67 211.76 120.65
  Q 205.55 130.54 205.46 143.81
  C 205.46 144.55 204.95 145.12 205.03 145.77
  Q 205.51 149.67 205.74 153.89
  Q 206.19 162.24 210.48 170.65
  C 216.75 182.94 228.50 188.39 242.45 187.45
  Q 248.54 187.04 253.82 184.05
  Q 254.29 183.78 254.29 183.24
  L 254.29 155.65
  Q 254.29 155.00 253.65 155.00
  Z"
/>
<path fill="#000000" d="
  M 72.82 128.84
  Q 72.72 147.61 72.73 166.95
  Q 72.73 171.28 68.26 171.31
  Q 68.16 171.31 68.07 171.30
  Q 63.59 170.94 63.56 166.59
  Q 63.44 147.87 63.53 128.62
  A 0.24 0.24 0.0 0 0 63.11 128.46
  Q 60.72 131.00 58.39 133.21
  C 53.53 137.80 47.39 131.02 52.20 126.35
  Q 58.71 120.04 65.12 113.41
  A 4.35 4.35 0.0 0 1 71.37 113.40
  Q 77.73 119.95 84.40 126.47
  C 89.12 131.07 82.87 137.66 78.07 133.34
  Q 75.28 130.82 73.35 128.64
  Q 72.83 128.05 72.82 128.84
  Z"
/>
<path fill="#000000" d="
  M 78.76 218.00
  L 70.24 218.00
  Q 67.99 218.00 68.00 215.74
  L 68.01 211.49
  Q 68.02 209.26 70.26 209.26
  L 87.29 209.26
  A 3.10 3.09 -0.6 0 1 90.39 212.29
  Q 90.60 224.28 90.42 236.19
  Q 90.38 238.95 87.79 239.97
  C 70.45 246.83 49.96 242.92 45.77 221.89
  C 42.48 205.36 48.87 186.50 67.70 183.75
  C 74.26 182.79 81.95 183.58 87.74 186.83
  Q 90.46 188.35 90.50 191.47
  Q 90.52 193.65 90.40 195.73
  Q 90.19 199.12 87.35 197.28
  Q 79.53 192.22 70.99 193.09
  C 56.71 194.53 53.92 211.53 57.54 222.44
  C 59.79 229.22 65.48 233.23 72.70 233.25
  Q 75.96 233.26 78.91 231.81
  Q 79.52 231.51 79.52 230.82
  L 79.52 218.76
  Q 79.52 218.00 78.76 218.00
  Z"
/>
</svg>
