<?xml version="1.0" encoding="UTF-8"?>
<svg id="Layer_1" data-name="Layer 1" xmlns="http://www.w3.org/2000/svg" viewBox="0 0 83.38 36.85">
  <defs>
    <style>
      .cls-1 {
        fill: #c8d400;
      }

      .cls-1, .cls-2 {
        stroke-width: 0px;
      }

      .cls-2 {
        fill: #fff;
      }
    </style>
  </defs>
  <polygon class="cls-1" points="0 .13 0 33.91 66.65 33.91 83.38 17.02 66.65 .13 0 .13 0 .13"/>
  <path class="cls-2" d="m28.96,25.31c.13.38.21.68.24.91.03.22-.01.39-.13.5-.12.11-.32.18-.62.21-.3.03-.71.04-1.23.04s-.96,0-1.27-.02-.53-.05-.69-.1-.27-.11-.33-.2c-.06-.08-.12-.2-.16-.33l-1.38-4.14h-7.73l-1.3,4.03c-.04.15-.1.27-.17.37-.07.1-.18.18-.33.24-.15.06-.37.1-.65.12s-.65.03-1.11.03c-.49,0-.87-.02-1.15-.05-.28-.03-.47-.11-.57-.23-.11-.12-.14-.29-.11-.52.03-.22.11-.52.24-.89l6.35-18.27c.06-.18.14-.33.22-.44.08-.11.22-.2.41-.25.19-.06.44-.1.77-.11.33-.02.76-.02,1.31-.02.63,0,1.12,0,1.5.02.37.02.66.05.87.11.21.06.36.15.45.26.09.12.17.28.23.48l6.36,18.25Zm-9.45-15.1h-.02l-2.91,8.75h5.84l-2.91-8.75Z"/>
  <path class="cls-2" d="m40.54,11.93c0,.2-.01.37-.03.51-.02.14-.05.25-.1.33s-.09.14-.15.18c-.06.04-.12.05-.19.05h-3.39v3.69c0,.07-.02.14-.05.19-.04.05-.1.1-.19.14-.09.04-.2.07-.35.09-.15.02-.33.03-.54.03s-.4-.01-.54-.03c-.15-.02-.26-.05-.35-.09-.09-.04-.15-.09-.19-.14-.04-.05-.06-.12-.06-.19v-3.69h-3.38c-.06,0-.12-.02-.18-.05-.05-.04-.1-.1-.15-.18-.04-.08-.08-.19-.1-.33-.03-.14-.04-.31-.04-.51s.01-.36.03-.51c.02-.14.05-.25.09-.34.04-.08.09-.14.14-.18.05-.04.11-.05.17-.05h3.41v-3.68c0-.07.02-.14.06-.2.04-.06.1-.11.19-.15.09-.04.2-.07.35-.09.15-.02.33-.03.54-.03s.4.01.54.03c.15.02.26.05.35.09.09.04.15.09.19.15.04.06.05.13.05.2v3.68h3.42c.06,0,.11.02.17.05.05.04.1.1.14.18.04.08.07.2.09.34.02.14.03.31.03.51Z"/>
</svg>