<?xml version="1.0" encoding="UTF-8" standalone="no"?>
<!DOCTYPE svg PUBLIC "-//W3C//DTD SVG 1.1//EN" "http://www.w3.org/Graphics/SVG/1.1/DTD/svg11.dtd">
<svg xmlns="http://www.w3.org/2000/svg" version="1.1" viewBox="0.00 0.00 472.00 283.00">
<g stroke-width="2.00" fill="none" stroke-linecap="butt">
<path stroke="#807900"   d="
  M 111.25 258.23
  L 343.44 258.22
  A 1.45 1.44 21.1 0 0 344.51 257.75
  L 450.81 142.14
  A 0.61 0.60 45.4 0 0 450.81 141.31
  L 344.38 25.56
  Q 344.02 25.16 343.48 25.16
  L 111.25 25.46"
/>
<path stroke="#807900"   d="
  M 256.20 201.11
  C 283.46 190.90 288.83 162.90 287.08 137.01
  C 285.34 111.31 270.78 92.04 244.16 88.73
  C 241.82 88.44 239.26 87.88 236.97 87.87
  Q 221.78 87.83 204.36 87.81
  C 200.01 87.81 196.69 90.54 196.69 95.08
  Q 196.70 149.34 196.70 198.34
  C 196.70 203.22 200.91 205.21 205.19 205.20
  Q 221.82 205.19 237.33 205.08
  C 238.47 205.07 239.25 204.56 240.31 204.50
  Q 248.35 204.05 256.20 201.11"
/>
<path stroke="#808080"   d="
  M 281.21 172.16
  Q 285.10 160.73 285.00 149.82
  C 284.98 147.72 285.79 145.88 285.42 143.62
  Q 285.10 141.72 285.03 139.60
  C 284.22 116.40 272.90 97.20 249.05 91.90
  Q 241.52 90.22 234.52 90.20
  Q 219.78 90.14 203.83 90.17
  C 201.98 90.18 199.51 91.40 199.14 93.46
  C 198.90 94.79 198.52 95.77 198.52 97.18
  Q 198.47 147.96 198.54 195.85
  C 198.54 197.31 198.89 199.23 199.58 200.50
  C 200.55 202.28 202.44 202.88 204.32 202.86
  Q 216.61 202.74 228.28 202.88
  Q 235.04 202.96 242.88 201.98
  C 261.11 199.70 275.12 190.02 281.21 172.16"
/>
<path stroke="#808080"   d="
  M 262.41 164.88
  Q 265.94 153.48 264.69 140.17
  Q 264.64 139.59 264.60 139.01
  C 263.87 129.47 260.67 119.67 253.62 113.59
  Q 247.00 107.86 238.75 106.80
  Q 229.29 105.57 218.46 106.06
  Q 218.00 106.08 218.00 106.54
  L 218.00 186.22
  Q 218.00 186.49 218.27 186.49
  Q 225.80 186.56 233.07 186.46
  Q 255.82 186.15 262.41 164.88"
/>
<path stroke="#807900"   d="
  M 241.22 183.23
  C 251.12 180.66 257.76 173.64 260.43 164.24
  Q 264.84 148.74 261.43 132.10
  C 259.08 120.67 251.49 111.60 239.73 109.32
  Q 232.32 107.88 220.89 108.35
  Q 220.29 108.37 220.29 108.97
  L 220.30 183.80
  Q 220.30 184.35 220.85 184.38
  Q 230.86 184.94 239.41 183.61
  Q 240.31 183.47 241.22 183.23"
/>
</g>
<path fill="#000000" d="
  M 344.74 22.05
  Q 346.39 22.69 347.31 23.69
  Q 400.13 81.09 452.97 138.56
  Q 455.88 141.73 452.97 144.90
  Q 399.15 203.43 347.27 259.77
  C 346.08 261.07 344.51 261.79 342.76 261.79
  Q 181.53 261.75 21.45 261.75
  A 3.71 3.70 -90.0 0 1 17.75 258.04
  L 17.75 25.31
  A 3.56 3.56 0.0 0 1 21.31 21.75
  Q 343.09 21.75 343.09 21.75
  A 4.45 4.30 -33.7 0 1 344.74 22.05
  Z
  M 111.25 25.46
  Q 111.14 25.42 111.08 25.38
  Q 110.93 25.27 110.75 25.27
  Q 66.45 25.26 21.78 25.24
  Q 21.25 25.23 21.25 25.76
  L 21.25 257.74
  A 0.51 0.51 0.0 0 0 21.76 258.25
  L 111.25 258.23
  L 343.44 258.22
  A 1.45 1.44 21.1 0 0 344.51 257.75
  L 450.81 142.14
  A 0.61 0.60 45.4 0 0 450.81 141.31
  L 344.38 25.56
  Q 344.02 25.16 343.48 25.16
  L 111.25 25.46
  Z"
/>
<path fill="#fff200" d="
  M 111.25 258.23
  L 111.25 25.46
  L 343.48 25.16
  Q 344.02 25.16 344.38 25.56
  L 450.81 141.31
  A 0.61 0.60 45.4 0 1 450.81 142.14
  L 344.51 257.75
  A 1.45 1.44 21.1 0 1 343.44 258.22
  L 111.25 258.23
  Z
  M 256.20 201.11
  C 283.46 190.90 288.83 162.90 287.08 137.01
  C 285.34 111.31 270.78 92.04 244.16 88.73
  C 241.82 88.44 239.26 87.88 236.97 87.87
  Q 221.78 87.83 204.36 87.81
  C 200.01 87.81 196.69 90.54 196.69 95.08
  Q 196.70 149.34 196.70 198.34
  C 196.70 203.22 200.91 205.21 205.19 205.20
  Q 221.82 205.19 237.33 205.08
  C 238.47 205.07 239.25 204.56 240.31 204.50
  Q 248.35 204.05 256.20 201.11
  Z"
/>
<path fill="#000000" d="
  M 77.69 85.74
  L 56.97 85.74
  Q 56.41 85.74 56.24 86.27
  L 52.75 97.13
  A 3.00 2.98 -81.4 0 1 49.93 99.22
  L 43.86 99.28
  Q 40.17 99.32 41.38 95.84
  L 59.89 42.59
  A 3.09 3.09 0.0 0 1 62.81 40.51
  L 73.27 40.54
  A 2.78 2.78 0.0 0 1 75.90 42.41
  Q 86.01 71.36 94.32 95.27
  Q 94.73 96.45 94.70 97.73
  A 1.54 1.54 0.0 0 1 93.15 99.24
  L 84.37 99.21
  A 2.11 2.11 0.0 0 1 82.38 97.77
  L 78.59 86.39
  Q 78.37 85.74 77.69 85.74
  Z
  M 59.30 76.12
  A 0.31 0.31 0.0 0 0 59.59 76.53
  L 75.10 76.50
  A 0.31 0.31 0.0 0 0 75.39 76.10
  L 67.60 52.61
  A 0.31 0.31 0.0 0 0 67.01 52.61
  L 59.30 76.12
  Z"
/>
<path fill="#000000" d="
  M 287.08 137.01
  C 288.83 162.90 283.46 190.90 256.20 201.11
  Q 248.35 204.05 240.31 204.50
  C 239.25 204.56 238.47 205.07 237.33 205.08
  Q 221.82 205.19 205.19 205.20
  C 200.91 205.21 196.70 203.22 196.70 198.34
  Q 196.70 149.34 196.69 95.08
  C 196.69 90.54 200.01 87.81 204.36 87.81
  Q 221.78 87.83 236.97 87.87
  C 239.26 87.88 241.82 88.44 244.16 88.73
  C 270.78 92.04 285.34 111.31 287.08 137.01
  Z
  M 281.21 172.16
  Q 285.10 160.73 285.00 149.82
  C 284.98 147.72 285.79 145.88 285.42 143.62
  Q 285.10 141.72 285.03 139.60
  C 284.22 116.40 272.90 97.20 249.05 91.90
  Q 241.52 90.22 234.52 90.20
  Q 219.78 90.14 203.83 90.17
  C 201.98 90.18 199.51 91.40 199.14 93.46
  C 198.90 94.79 198.52 95.77 198.52 97.18
  Q 198.47 147.96 198.54 195.85
  C 198.54 197.31 198.89 199.23 199.58 200.50
  C 200.55 202.28 202.44 202.88 204.32 202.86
  Q 216.61 202.74 228.28 202.88
  Q 235.04 202.96 242.88 201.98
  C 261.11 199.70 275.12 190.02 281.21 172.16
  Z"
/>
<path fill="#ffffff" d="
  M 281.21 172.16
  C 275.12 190.02 261.11 199.70 242.88 201.98
  Q 235.04 202.96 228.28 202.88
  Q 216.61 202.74 204.32 202.86
  C 202.44 202.88 200.55 202.28 199.58 200.50
  C 198.89 199.23 198.54 197.31 198.54 195.85
  Q 198.47 147.96 198.52 97.18
  C 198.52 95.77 198.90 94.79 199.14 93.46
  C 199.51 91.40 201.98 90.18 203.83 90.17
  Q 219.78 90.14 234.52 90.20
  Q 241.52 90.22 249.05 91.90
  C 272.90 97.20 284.22 116.40 285.03 139.60
  Q 285.10 141.72 285.42 143.62
  C 285.79 145.88 284.98 147.72 285.00 149.82
  Q 285.10 160.73 281.21 172.16
  Z
  M 262.41 164.88
  Q 265.94 153.48 264.69 140.17
  Q 264.64 139.59 264.60 139.01
  C 263.87 129.47 260.67 119.67 253.62 113.59
  Q 247.00 107.86 238.75 106.80
  Q 229.29 105.57 218.46 106.06
  Q 218.00 106.08 218.00 106.54
  L 218.00 186.22
  Q 218.00 186.49 218.27 186.49
  Q 225.80 186.56 233.07 186.46
  Q 255.82 186.15 262.41 164.88
  Z"
/>
<path fill="#000000" d="
  M 262.41 164.88
  Q 255.82 186.15 233.07 186.46
  Q 225.80 186.56 218.27 186.49
  Q 218.00 186.49 218.00 186.22
  L 218.00 106.54
  Q 218.00 106.08 218.46 106.06
  Q 229.29 105.57 238.75 106.80
  Q 247.00 107.86 253.62 113.59
  C 260.67 119.67 263.87 129.47 264.60 139.01
  Q 264.64 139.59 264.69 140.17
  Q 265.94 153.48 262.41 164.88
  Z
  M 241.22 183.23
  C 251.12 180.66 257.76 173.64 260.43 164.24
  Q 264.84 148.74 261.43 132.10
  C 259.08 120.67 251.49 111.60 239.73 109.32
  Q 232.32 107.88 220.89 108.35
  Q 220.29 108.37 220.29 108.97
  L 220.30 183.80
  Q 220.30 184.35 220.85 184.38
  Q 230.86 184.94 239.41 183.61
  Q 240.31 183.47 241.22 183.23
  Z"
/>
<path fill="#fff200" d="
  M 241.22 183.23
  Q 240.31 183.47 239.41 183.61
  Q 230.86 184.94 220.85 184.38
  Q 220.30 184.35 220.30 183.80
  L 220.29 108.97
  Q 220.29 108.37 220.89 108.35
  Q 232.32 107.88 239.73 109.32
  C 251.49 111.60 259.08 120.67 261.43 132.10
  Q 264.84 148.74 260.43 164.24
  C 257.76 173.64 251.12 180.66 241.22 183.23
  Z"
/>
<path fill="#000000" d="
  M 62.93 129.11
  Q 60.86 131.35 58.68 133.45
  C 53.73 138.23 47.35 131.44 52.07 126.78
  Q 58.31 120.61 64.68 114.14
  A 5.00 5.00 0.0 0 1 71.81 114.13
  Q 78.25 120.66 84.41 126.79
  C 89.15 131.51 82.80 138.20 77.81 133.43
  Q 75.51 131.23 73.27 128.83
  Q 72.77 128.30 72.77 129.03
  Q 72.76 146.93 72.72 167.37
  C 72.71 173.53 63.58 173.28 63.54 166.86
  Q 63.44 148.06 63.52 129.34
  Q 63.53 128.47 62.93 129.11
  Z"
/>
<path fill="#000000" d="
  M 78.76 219.00
  L 70.24 219.00
  Q 67.99 219.00 68.00 216.74
  L 68.01 212.49
  Q 68.02 210.26 70.26 210.26
  L 87.30 210.26
  A 3.09 3.08 -0.5 0 1 90.39 213.29
  Q 90.61 225.58 90.40 237.30
  Q 90.35 240.05 87.69 241.05
  C 69.64 247.81 49.27 243.70 45.58 221.80
  Q 44.19 213.63 45.91 206.01
  Q 50.06 187.54 68.37 184.62
  Q 71.62 184.10 77.44 184.69
  Q 83.96 185.36 88.72 188.47
  A 3.31 3.28 -80.5 0 1 90.12 190.45
  Q 90.94 193.93 90.16 197.96
  A 1.27 1.26 22.2 0 1 88.22 198.77
  C 75.46 190.36 58.84 192.25 56.39 210.11
  C 55.37 217.50 56.76 226.51 63.07 231.24
  C 67.43 234.51 73.98 235.29 79.03 232.75
  Q 79.52 232.50 79.52 231.95
  L 79.52 219.76
  Q 79.52 219.00 78.76 219.00
  Z"
/>
</svg>
