<?xml version="1.0" encoding="UTF-8" standalone="no"?>
<!DOCTYPE svg PUBLIC "-//W3C//DTD SVG 1.1//EN" "http://www.w3.org/Graphics/SVG/1.1/DTD/svg11.dtd">
<svg xmlns="http://www.w3.org/2000/svg" version="1.1" viewBox="0.00 0.00 472.00 283.00">
<g stroke-width="2.00" fill="none" stroke-linecap="butt">
<path stroke="#7f5d0a"   d="
  M 111.25 258.23
  L 343.28 258.23
  A 1.82 1.82 0.0 0 0 344.62 257.64
  L 450.86 142.10
  A 0.55 0.55 0.0 0 0 450.86 141.36
  L 344.43 25.61
  A 1.41 1.38 -21.1 0 0 343.41 25.17
  L 111.25 25.46"
/>
<path stroke="#7f5d0a"   d="
  M 229.30 130.81
  M 229.30 130.81
  L 229.29 105.58
  A 0.28 0.28 0.0 0 1 229.57 105.30
  Q 247.81 105.29 266.28 105.31
  C 272.05 105.32 270.55 91.84 269.99 88.75
  Q 269.28 84.77 265.20 84.79
  Q 240.91 84.92 213.51 84.76
  C 209.57 84.73 205.73 87.35 205.73 91.42
  Q 205.69 143.34 205.70 194.89
  C 205.70 199.38 208.77 202.13 213.40 202.14
  Q 238.17 202.21 266.41 202.17
  C 269.27 202.17 270.51 198.90 270.78 196.48
  C 271.27 192.06 271.58 184.39 268.26 182.03
  Q 267.79 181.70 267.22 181.70
  L 229.75 181.70
  A 0.46 0.45 -0.0 0 1 229.29 181.25
  L 229.29 151.78
  Q 229.29 151.30 229.78 151.30
  Q 245.00 151.29 260.27 151.29
  C 262.03 151.29 263.60 150.08 264.02 148.37
  Q 265.71 141.58 264.06 134.56
  Q 263.32 131.46 259.98 131.46
  Q 243.25 131.49 229.96 131.48
  Q 229.30 131.48 229.30 130.81"
/>
<path stroke="#808080"   d="
  M 227.62 149.00
  L 259.95 149.00
  Q 261.90 149.00 262.23 147.09
  C 262.91 143.21 263.36 137.62 261.52 134.27
  A 1.45 1.44 -14.2 0 0 260.25 133.52
  L 227.51 133.52
  A 0.51 0.51 0.0 0 1 227.00 133.01
  L 227.00 103.50
  Q 227.00 103.00 227.50 103.00
  L 266.31 103.00
  A 1.40 1.38 -81.9 0 0 267.64 101.99
  Q 269.49 95.31 267.62 88.25
  A 1.46 1.46 0.0 0 0 266.21 87.17
  Q 238.62 87.16 212.73 87.17
  C 210.86 87.17 208.55 88.47 208.14 90.45
  C 207.88 91.77 207.53 92.76 207.53 94.15
  Q 207.49 142.94 207.55 191.72
  C 207.55 195.89 208.26 199.83 212.99 199.83
  Q 239.59 199.83 266.83 199.84
  A 0.79 0.78 -74.2 0 0 267.50 199.46
  Q 268.84 197.17 268.86 194.31
  C 268.88 191.22 269.23 187.26 267.78 184.51
  Q 267.52 184.00 266.95 184.00
  L 227.50 184.00
  Q 227.00 184.00 227.00 183.50
  L 227.00 149.62
  Q 227.00 149.00 227.62 149.00"
/>
</g>
<path fill="#000000" d="
  M 454.02 143.41
  Q 453.60 144.23 452.97 144.92
  Q 394.68 208.27 347.29 259.84
  C 346.26 260.96 344.54 261.75 343.01 261.75
  Q 184.99 261.75 21.45 261.75
  A 3.70 3.69 -0.0 0 1 17.75 258.06
  L 17.75 25.30
  A 3.55 3.55 0.0 0 1 21.30 21.75
  Q 181.87 21.76 342.77 21.75
  Q 345.55 21.75 347.49 23.85
  Q 399.68 80.60 452.97 138.56
  C 454.20 139.89 454.94 141.62 454.02 143.41
  Z
  M 111.25 258.23
  L 343.28 258.23
  A 1.82 1.82 0.0 0 0 344.62 257.64
  L 450.86 142.10
  A 0.55 0.55 0.0 0 0 450.86 141.36
  L 344.43 25.61
  A 1.41 1.38 -21.1 0 0 343.41 25.17
  L 111.25 25.46
  Q 111.16 25.42 111.10 25.38
  Q 110.92 25.25 110.83 25.25
  Q 66.17 25.25 21.75 25.25
  Q 21.25 25.25 21.25 25.76
  L 21.25 257.74
  A 0.51 0.51 0.0 0 0 21.76 258.25
  L 111.25 258.23
  Z"
/>
<path fill="#fdb913" d="
  M 111.25 258.23
  L 111.25 25.46
  L 343.41 25.17
  A 1.41 1.38 -21.1 0 1 344.43 25.61
  L 450.86 141.36
  A 0.55 0.55 0.0 0 1 450.86 142.10
  L 344.62 257.64
  A 1.82 1.82 0.0 0 1 343.28 258.23
  L 111.25 258.23
  Z
  M 229.30 130.81
  L 229.29 105.58
  A 0.28 0.28 0.0 0 1 229.57 105.30
  Q 247.81 105.29 266.28 105.31
  C 272.05 105.32 270.55 91.84 269.99 88.75
  Q 269.28 84.77 265.20 84.79
  Q 240.91 84.92 213.51 84.76
  C 209.57 84.73 205.73 87.35 205.73 91.42
  Q 205.69 143.34 205.70 194.89
  C 205.70 199.38 208.77 202.13 213.40 202.14
  Q 238.17 202.21 266.41 202.17
  C 269.27 202.17 270.51 198.90 270.78 196.48
  C 271.27 192.06 271.58 184.39 268.26 182.03
  Q 267.79 181.70 267.22 181.70
  L 229.75 181.70
  A 0.46 0.45 -0.0 0 1 229.29 181.25
  L 229.29 151.78
  Q 229.29 151.30 229.78 151.30
  Q 245.00 151.29 260.27 151.29
  C 262.03 151.29 263.60 150.08 264.02 148.37
  Q 265.71 141.58 264.06 134.56
  Q 263.32 131.46 259.98 131.46
  Q 243.25 131.49 229.96 131.48
  Q 229.30 131.48 229.30 130.81
  Z"
/>
<path fill="#000000" d="
  M 77.79 85.74
  L 56.97 85.74
  Q 56.41 85.74 56.24 86.27
  L 52.75 97.13
  A 3.00 2.98 -81.4 0 1 49.93 99.22
  L 43.86 99.28
  Q 40.17 99.32 41.38 95.84
  L 59.89 42.59
  A 3.09 3.09 0.0 0 1 62.81 40.51
  L 73.26 40.54
  A 2.79 2.79 0.0 0 1 75.90 42.42
  Q 86.02 71.37 94.32 95.26
  Q 94.73 96.45 94.70 97.73
  A 1.54 1.54 0.0 0 1 93.15 99.24
  L 84.37 99.21
  A 2.11 2.11 0.0 0 1 82.38 97.77
  L 78.55 86.29
  Q 78.37 85.74 77.79 85.74
  Z
  M 59.30 76.12
  A 0.31 0.31 0.0 0 0 59.59 76.53
  L 75.10 76.50
  A 0.31 0.31 0.0 0 0 75.39 76.10
  L 67.60 52.61
  A 0.31 0.31 0.0 0 0 67.01 52.61
  L 59.30 76.12
  Z"
/>
<path fill="#000000" d="
  M 229.96 131.48
  Q 243.25 131.49 259.98 131.46
  Q 263.32 131.46 264.06 134.56
  Q 265.71 141.58 264.02 148.37
  C 263.60 150.08 262.03 151.29 260.27 151.29
  Q 245.00 151.29 229.78 151.30
  Q 229.29 151.30 229.29 151.78
  L 229.29 181.25
  A 0.46 0.45 0.0 0 0 229.75 181.70
  L 267.22 181.70
  Q 267.79 181.70 268.26 182.03
  C 271.58 184.39 271.27 192.06 270.78 196.48
  C 270.51 198.90 269.27 202.17 266.41 202.17
  Q 238.17 202.21 213.40 202.14
  C 208.77 202.13 205.70 199.38 205.70 194.89
  Q 205.69 143.34 205.73 91.42
  C 205.73 87.35 209.57 84.73 213.51 84.76
  Q 240.91 84.92 265.20 84.79
  Q 269.28 84.77 269.99 88.75
  C 270.55 91.84 272.05 105.32 266.28 105.31
  Q 247.81 105.29 229.57 105.30
  A 0.28 0.28 0.0 0 0 229.29 105.58
  L 229.30 130.81
  Q 229.30 131.48 229.96 131.48
  Z
  M 227.62 149.00
  L 259.95 149.00
  Q 261.90 149.00 262.23 147.09
  C 262.91 143.21 263.36 137.62 261.52 134.27
  A 1.45 1.44 -14.2 0 0 260.25 133.52
  L 227.51 133.52
  A 0.51 0.51 0.0 0 1 227.00 133.01
  L 227.00 103.50
  Q 227.00 103.00 227.50 103.00
  L 266.31 103.00
  A 1.40 1.38 -81.9 0 0 267.64 101.99
  Q 269.49 95.31 267.62 88.25
  A 1.46 1.46 0.0 0 0 266.21 87.17
  Q 238.62 87.16 212.73 87.17
  C 210.86 87.17 208.55 88.47 208.14 90.45
  C 207.88 91.77 207.53 92.76 207.53 94.15
  Q 207.49 142.94 207.55 191.72
  C 207.55 195.89 208.26 199.83 212.99 199.83
  Q 239.59 199.83 266.83 199.84
  A 0.79 0.78 -74.2 0 0 267.50 199.46
  Q 268.84 197.17 268.86 194.31
  C 268.88 191.22 269.23 187.26 267.78 184.51
  Q 267.52 184.00 266.95 184.00
  L 227.50 184.00
  Q 227.00 184.00 227.00 183.50
  L 227.00 149.62
  Q 227.00 149.00 227.62 149.00
  Z"
/>
<path fill="#ffffff" d="
  M 227.00 149.62
  L 227.00 183.50
  Q 227.00 184.00 227.50 184.00
  L 266.95 184.00
  Q 267.52 184.00 267.78 184.51
  C 269.23 187.26 268.88 191.22 268.86 194.31
  Q 268.84 197.17 267.50 199.46
  A 0.79 0.78 -74.2 0 1 266.83 199.84
  Q 239.59 199.83 212.99 199.83
  C 208.26 199.83 207.55 195.89 207.55 191.72
  Q 207.49 142.94 207.53 94.15
  C 207.53 92.76 207.88 91.77 208.14 90.45
  C 208.55 88.47 210.86 87.17 212.73 87.17
  Q 238.62 87.16 266.21 87.17
  A 1.46 1.46 0.0 0 1 267.62 88.25
  Q 269.49 95.31 267.64 101.99
  A 1.40 1.38 -81.9 0 1 266.31 103.00
  L 227.50 103.00
  Q 227.00 103.00 227.00 103.50
  L 227.00 133.01
  A 0.51 0.51 0.0 0 0 227.51 133.52
  L 260.25 133.52
  A 1.45 1.44 -14.2 0 1 261.52 134.27
  C 263.36 137.62 262.91 143.21 262.23 147.09
  Q 261.90 149.00 259.95 149.00
  L 227.62 149.00
  Q 227.00 149.00 227.00 149.62
  Z"
/>
<path fill="#000000" d="
  M 62.92 129.10
  Q 60.87 131.35 58.67 133.46
  C 53.74 138.17 47.36 131.53 52.08 126.81
  Q 58.31 120.57 64.72 114.10
  A 4.95 4.94 44.8 0 1 71.73 114.08
  Q 78.38 120.74 84.44 126.83
  C 89.14 131.56 82.75 138.16 77.86 133.47
  Q 75.52 131.23 73.28 128.83
  Q 72.77 128.29 72.77 129.03
  Q 72.76 147.63 72.72 167.37
  C 72.71 173.57 63.53 173.19 63.53 166.90
  Q 63.52 148.37 63.44 129.29
  Q 63.43 128.54 62.92 129.10
  Z"
/>
<path fill="#000000" d="
  M 78.76 219.00
  L 70.24 219.00
  Q 67.99 219.00 68.00 216.74
  L 68.01 212.49
  Q 68.02 210.26 70.26 210.26
  L 87.32 210.26
  A 3.05 3.04 -0.6 0 1 90.37 213.24
  Q 90.61 224.00 90.42 237.16
  Q 90.38 239.89 88.01 240.87
  Q 80.85 243.86 72.43 243.99
  C 58.05 244.21 47.91 236.22 45.54 221.58
  C 42.92 205.35 49.35 187.34 67.72 184.74
  C 74.66 183.75 82.88 184.65 88.71 188.47
  A 3.30 3.27 -80.6 0 1 90.12 190.46
  Q 90.96 193.94 90.17 197.95
  A 1.29 1.28 22.3 0 1 88.20 198.77
  C 75.67 190.41 59.12 192.20 56.44 209.71
  C 55.52 215.67 56.29 222.80 59.78 227.85
  C 64.02 234.00 72.56 235.93 79.04 232.75
  Q 79.52 232.51 79.52 231.97
  L 79.52 219.76
  Q 79.52 219.00 78.76 219.00
  Z"
/>
</svg>
