<?xml version="1.0" encoding="UTF-8" standalone="no"?>
<!DOCTYPE svg PUBLIC "-//W3C//DTD SVG 1.1//EN" "http://www.w3.org/Graphics/SVG/1.1/DTD/svg11.dtd">
<svg xmlns="http://www.w3.org/2000/svg" version="1.1" viewBox="0.00 0.00 472.00 283.00">
<g stroke-width="2.00" fill="none" stroke-linecap="butt">
<path stroke="#7a3811" d="
  M 111.25 258.23
  L 343.27 258.23
  A 1.86 1.85 21.4 0 0 344.63 257.64
  L 450.86 142.10
  A 0.56 0.55 -44.6 0 0 450.87 141.36
  L 344.39 25.57
  Q 344.03 25.18 343.51 25.18
  L 111.25 25.20"
/>
<path stroke="#7a3811" d="
  M 236.30 132.06
  L 236.30 104.76
  Q 236.30 104.18 236.88 104.18
  Q 253.12 104.16 269.77 104.19
  C 275.96 104.20 274.67 92.08 274.26 87.93
  C 274.01 85.42 272.46 82.81 269.66 82.82
  Q 247.25 82.83 220.66 82.79
  C 218.01 82.79 215.24 83.72 213.79 86.02
  Q 212.62 87.90 212.63 91.56
  Q 212.78 141.45 212.72 192.56
  Q 212.72 193.48 212.67 194.42
  Q 212.43 199.15 217.04 200.02
  Q 223.56 201.24 232.56 199.91
  Q 234.46 199.63 236.05 197.41
  Q 236.29 197.07 236.29 196.66
  L 236.30 154.29
  A 0.29 0.28 -90.0 0 1 236.58 154.00
  Q 250.88 153.98 266.97 154.01
  C 272.14 154.03 272.24 148.80 272.36 145.05
  C 272.50 140.55 273.11 132.81 267.01 132.81
  Q 254.83 132.82 237.06 132.82
  Q 236.30 132.83 236.30 132.06"
/>
<path stroke="#808080" d="
  M 235.01 151.71
  L 267.77 151.71
  A 1.74 1.74 0.0 0 0 269.44 150.45
  Q 271.45 143.52 269.55 136.54
  A 1.86 1.85 82.4 0 0 267.76 135.16
  L 235.08 135.17
  Q 234.49 135.17 234.49 134.58
  L 234.49 102.42
  Q 234.49 101.83 235.08 101.83
  L 269.72 101.84
  Q 271.40 101.84 271.79 100.20
  Q 273.38 93.50 271.73 86.70
  A 2.01 2.00 -6.8 0 0 269.78 85.17
  Q 245.57 85.17 220.09 85.16
  Q 218.63 85.16 217.28 85.84
  Q 214.56 87.22 214.56 91.03
  Q 214.46 143.52 214.53 194.88
  A 2.73 2.73 0.0 0 0 216.61 197.53
  Q 223.97 199.35 231.44 197.79
  C 232.98 197.47 234.47 196.63 234.47 194.98
  Q 234.53 173.91 234.47 152.25
  Q 234.47 151.71 235.01 151.71"
/>
</g>
<path fill="#000000" d="
  M 344.74 22.05
  Q 346.41 22.68 347.60 23.97
  Q 400.12 81.08 452.96 138.55
  Q 455.89 141.73 452.96 144.92
  Q 400.91 201.50 348.32 258.72
  C 346.44 260.76 344.70 262.16 341.70 261.75
  Q 341.70 261.75 21.45 261.75
  A 3.70 3.70 0.0 0 1 17.75 258.05
  L 17.75 25.29
  A 3.54 3.54 0.0 0 1 21.29 21.75
  Q 342.88 21.75 343.08 21.75
  A 4.77 4.68 -34.2 0 1 344.74 22.05
  Z
  M 111.25 258.23
  L 343.27 258.23
  A 1.86 1.85 21.4 0 0 344.63 257.64
  L 450.86 142.10
  A 0.56 0.55 -44.6 0 0 450.87 141.36
  L 344.39 25.57
  Q 344.03 25.18 343.51 25.18
  L 111.25 25.20
  L 21.74 25.27
  Q 21.25 25.27 21.25 25.76
  L 21.25 257.74
  A 0.51 0.51 0.0 0 0 21.76 258.25
  L 111.25 258.23
  Z"
/>
<path fill="#f37021" d="
  M 111.25 25.20
  L 343.51 25.18
  Q 344.03 25.18 344.39 25.57
  L 450.87 141.36
  A 0.56 0.55 -44.6 0 1 450.86 142.10
  L 344.63 257.64
  A 1.86 1.85 21.4 0 1 343.27 258.23
  L 111.25 258.23
  L 111.25 25.20
  Z
  M 236.30 132.06
  L 236.30 104.76
  Q 236.30 104.18 236.88 104.18
  Q 253.12 104.16 269.77 104.19
  C 275.96 104.20 274.67 92.08 274.26 87.93
  C 274.01 85.42 272.46 82.81 269.66 82.82
  Q 247.25 82.83 220.66 82.79
  C 218.01 82.79 215.24 83.72 213.79 86.02
  Q 212.62 87.90 212.63 91.56
  Q 212.78 141.45 212.72 192.56
  Q 212.72 193.48 212.67 194.42
  Q 212.43 199.15 217.04 200.02
  Q 223.56 201.24 232.56 199.91
  Q 234.46 199.63 236.05 197.41
  Q 236.29 197.07 236.29 196.66
  L 236.30 154.29
  A 0.29 0.28 -90.0 0 1 236.58 154.00
  Q 250.88 153.98 266.97 154.01
  C 272.14 154.03 272.24 148.80 272.36 145.05
  C 272.50 140.55 273.11 132.81 267.01 132.81
  Q 254.83 132.82 237.06 132.82
  Q 236.30 132.83 236.30 132.06
  Z"
/>
<path fill="#000000" d="
  M 77.69 84.74
  L 56.97 84.74
  Q 56.41 84.74 56.24 85.27
  L 52.75 96.13
  A 3.00 2.98 -81.4 0 1 49.93 98.22
  L 43.86 98.28
  Q 40.17 98.32 41.38 94.84
  L 59.89 41.59
  A 3.09 3.09 0.0 0 1 62.81 39.51
  L 73.25 39.54
  A 2.82 2.80 80.3 0 1 75.90 41.43
  Q 86.08 70.50 94.33 94.33
  Q 94.69 95.36 94.73 96.49
  A 1.54 1.54 0.0 0 1 93.33 98.09
  Q 89.11 98.49 84.20 98.09
  A 2.15 2.14 83.0 0 1 82.33 96.62
  L 78.59 85.39
  Q 78.37 84.74 77.69 84.74
  Z
  M 59.30 75.12
  A 0.31 0.31 0.0 0 0 59.59 75.53
  L 75.10 75.50
  A 0.31 0.31 0.0 0 0 75.39 75.10
  L 67.60 51.61
  A 0.31 0.31 0.0 0 0 67.01 51.61
  L 59.30 75.12
  Z"
/>
<path fill="#000000" d="
  M 237.06 132.82
  Q 254.83 132.82 267.01 132.81
  C 273.11 132.81 272.50 140.55 272.36 145.05
  C 272.24 148.80 272.14 154.03 266.97 154.01
  Q 250.88 153.98 236.58 154.00
  A 0.29 0.28 -90.0 0 0 236.30 154.29
  L 236.29 196.66
  Q 236.29 197.07 236.05 197.41
  Q 234.46 199.63 232.56 199.91
  Q 223.56 201.24 217.04 200.02
  Q 212.43 199.15 212.67 194.42
  Q 212.72 193.48 212.72 192.56
  Q 212.78 141.45 212.63 91.56
  Q 212.62 87.90 213.79 86.02
  C 215.24 83.72 218.01 82.79 220.66 82.79
  Q 247.25 82.83 269.66 82.82
  C 272.46 82.81 274.01 85.42 274.26 87.93
  C 274.67 92.08 275.96 104.20 269.77 104.19
  Q 253.12 104.16 236.88 104.18
  Q 236.30 104.18 236.30 104.76
  L 236.30 132.06
  Q 236.30 132.83 237.06 132.82
  Z
  M 235.01 151.71
  L 267.77 151.71
  A 1.74 1.74 0.0 0 0 269.44 150.45
  Q 271.45 143.52 269.55 136.54
  A 1.86 1.85 82.4 0 0 267.76 135.16
  L 235.08 135.17
  Q 234.49 135.17 234.49 134.58
  L 234.49 102.42
  Q 234.49 101.83 235.08 101.83
  L 269.72 101.84
  Q 271.40 101.84 271.79 100.20
  Q 273.38 93.50 271.73 86.70
  A 2.01 2.00 -6.8 0 0 269.78 85.17
  Q 245.57 85.17 220.09 85.16
  Q 218.63 85.16 217.28 85.84
  Q 214.56 87.22 214.56 91.03
  Q 214.46 143.52 214.53 194.88
  A 2.73 2.73 0.0 0 0 216.61 197.53
  Q 223.97 199.35 231.44 197.79
  C 232.98 197.47 234.47 196.63 234.47 194.98
  Q 234.53 173.91 234.47 152.25
  Q 234.47 151.71 235.01 151.71
  Z"
/>
<path fill="#ffffff" d="
  M 234.47 152.25
  Q 234.53 173.91 234.47 194.98
  C 234.47 196.63 232.98 197.47 231.44 197.79
  Q 223.97 199.35 216.61 197.53
  A 2.73 2.73 0.0 0 1 214.53 194.88
  Q 214.46 143.52 214.56 91.03
  Q 214.56 87.22 217.28 85.84
  Q 218.63 85.16 220.09 85.16
  Q 245.57 85.17 269.78 85.17
  A 2.01 2.00 -6.8 0 1 271.73 86.70
  Q 273.38 93.50 271.79 100.20
  Q 271.40 101.84 269.72 101.84
  L 235.08 101.83
  Q 234.49 101.83 234.49 102.42
  L 234.49 134.58
  Q 234.49 135.17 235.08 135.17
  L 267.76 135.16
  A 1.86 1.85 82.4 0 1 269.55 136.54
  Q 271.45 143.52 269.44 150.45
  A 1.74 1.74 0.0 0 1 267.77 151.71
  L 235.01 151.71
  Q 234.47 151.71 234.47 152.25
  Z"
/>
<path fill="#000000" d="
  M 72.82 128.83
  Q 72.72 147.61 72.73 166.95
  C 72.73 173.13 63.55 172.96 63.53 166.32
  Q 63.46 145.51 63.53 128.62
  Q 63.53 128.05 63.13 128.46
  Q 60.71 130.99 58.39 133.20
  C 53.65 137.74 47.59 131.10 51.84 126.83
  Q 58.80 119.83 65.14 113.39
  A 4.36 4.36 0.0 0 1 71.37 113.41
  Q 77.98 120.20 84.36 126.46
  C 89.10 131.11 82.92 137.58 78.14 133.40
  Q 75.39 130.98 73.33 128.65
  Q 72.83 128.08 72.82 128.83
  Z"
/>
<path fill="#000000" d="
  M 78.76 218.00
  L 70.24 218.00
  Q 67.99 218.00 68.00 215.74
  L 68.01 211.49
  Q 68.02 209.26 70.26 209.26
  L 87.29 209.26
  A 3.09 3.08 -0.6 0 1 90.38 212.28
  Q 90.63 224.95 90.38 236.62
  C 90.33 239.23 87.85 240.08 85.81 240.74
  C 68.55 246.30 49.90 242.20 45.79 222.00
  C 42.42 205.42 48.86 186.57 67.62 183.75
  C 74.48 182.72 83.10 183.65 88.78 187.53
  A 3.27 3.21 10.8 0 1 90.11 189.45
  Q 90.93 192.93 90.16 196.97
  A 1.25 1.24 21.5 0 1 88.27 197.79
  Q 86.80 196.86 85.26 196.03
  C 72.68 189.34 58.75 193.25 56.44 208.66
  Q 55.65 213.96 56.67 219.22
  Q 59.25 232.54 72.57 233.27
  Q 75.82 233.45 79.09 231.67
  Q 79.52 231.44 79.52 230.96
  L 79.52 218.76
  Q 79.52 218.00 78.76 218.00
  Z"
/>
</svg>
