<svg xmlns="http://www.w3.org/2000/svg" width="36.4" height="36.4" viewBox="0 0 36.4 36.4">
    <ellipse fill="#FFF" cx="18.4" cy="18.2" rx="17.3" ry="16.9"/>
    <path fill="#191817" d="M18.2 0C8.1 0 0 8.1 0 18.2s8.2 18.2 18.2 18.2c10.1 0 18.2-8.1 18.2-18.2S28.2 0 18.2 0zm13.3 19.6c0 .2 0 .3-.1.5-.1.1-.2.3-.3.4-.1.1-.2.2-.4.3-.1.1-.3.1-.5.1s-.3 0-.5-.1c-.1-.1-.3-.2-.4-.3-.1-.1-.2-.2-.3-.4-.1-.1-.1-.3-.1-.5s0-.3.1-.5c.1-.1.2-.3.3-.4.1-.1.2-.2.4-.3.1-.1.3-.1.5-.1s.3 0 .5.1c.1.1.3.2.4.3.1.1.2.2.3.4.1.2.1.3.1.5zm-1.3-4.3l.4.2-3.4 5.6-.3-.2 3.3-5.6zM26.7 18c-.1-.1-.3-.2-.4-.3-.1-.1-.2-.2-.3-.4-.1-.1-.1-.3-.1-.5s0-.3.1-.5c.1-.1.2-.3.3-.4.1-.1.2-.2.4-.3.1-.1.3-.1.5-.1s.3 0 .5.1c.1.1.3.2.4.3.1.1.2.2.3.4.1.1.1.3.1.5s0 .3-.1.5c-.1.1-.2.3-.3.4-.1.1-.2.2-.4.3-.1.1-.3.1-.5.1s-.3 0-.5-.1zm3.1-9.4l-1.5 1.1-.2.2c-.1.1-.1.1-.1.2v.3c0 .1.1.2.1.3l.2.2c.1 0 .2.1.3.1h.3c.1 0 .2-.1.2-.1l1.5-1.1.6.4-1.6 1.1c-.1.1-.3.2-.5.2h-.5c-.1 0-.3-.1-.4-.2-.1-.1-.2-.2-.4-.3-.1-.1-.2-.3-.2-.4 0-.1-.1-.3 0-.5 0-.1.1-.3.1-.4.1-.1.2-.3.3-.4l1.5-1.1.3.4zm-3.5-2.8l.3-.4 1.8 1.5-.2.4-.8-.6-1.5 2-.4-.3 1.5-2-.7-.6zm-3.8-2.3l.6.3.5 2.6.8-2.1.5.2-1.1 2.8-.6-.2-.5-2.7-.8 2.1-.5-.2 1.1-2.8zM18.4 3l2 .1-.1.5-1.4-.1-.1.7 1.4.1-.1.5-1.3-.1-.1.8 1.5.1v.5L18.1 6l.3-3zM14 4.4c0-.2.1-.4.2-.6s.3-.3.4-.4c.3-.1.5-.2.8-.2H16.3c.1 0 .2.1.3.2l-.4.4c-.1-.1-.2-.1-.4-.2h-.4c-.2 0-.3.1-.4.2l-.3.3c-.1.1-.1.2-.1.4v.4c0 .2.1.3.2.4l.3.3c.1.1.2.1.4.2h.4c.2 0 .3-.1.4-.2.1-.1.2-.2.2-.3l.5.2c-.1.2-.2.4-.4.5l-.6.3c-.2 0-.5.1-.7 0-.2 0-.4-.1-.6-.2-.2-.1-.3-.2-.4-.4l-.3-.6c0-.2-.1-.5 0-.7zM9.7 6c.1-.2.1-.4.3-.5.1-.2.3-.3.5-.4.2-.1.4-.2.6-.2h.6c.2 0 .4.1.5.3.2.1.3.3.4.5.1.2.2.4.2.6v.6c-.1.2-.1.4-.3.5-.1.2-.3.3-.5.4-.2.1-.4.2-.6.2h-.6c-.2 0-.4-.1-.5-.3-.2-.2-.3-.3-.4-.5-.1-.2-.2-.4-.2-.6V6zM6.9 8l.3-.3c.1-.1.2-.1.3-.2h.4c.1 0 .2.1.4.2s.3.3.3.5 0 .4-.1.6l1.5.3-.4.5-1.5-.4-.3.3.9.9-.4.4-2.1-2 .7-.8zm-2.3 3.3c.1-.2.2-.3.3-.4.1-.1.2-.2.3-.2.1-.1.2-.1.3-.1.1 0 .3 0 .4.1.1.1.3.2.3.3.1.1.1.2.1.3v.4c0 .1-.1.3-.2.4l-.2.4 1.1.6-.2.5-2.6-1.4.4-.9zm-1.1 2.8l.5.1 1.7 2 .3-1.7.5.1-.5 2.3-.5-.1-1.7-2-.3 1.6-.4-.1.4-2.2zm-.6 4.1h.5l.1 1.4h.8l-.1-1.4h.4l.1 1.3h.9L5.5 18l.4-.1.2 2.1-3 .2-.2-2zm1.3 6.1l-.4-1.1c0-.1-.1-.2-.1-.3v-.3c0-.1.1-.2.2-.3.1-.1.2-.1.3-.2.2-.1.3-.1.4 0 .1.1.3.1.4.3 0-.2 0-.4.1-.5.1-.2.2-.3.4-.3.2-.1.3-.1.4 0 .1 0 .2.1.3.2l.3.3c.1.1.1.2.2.4l.4 1-2.9.8zm2.6 2.2c-.2 0-.5-.1-.5-.4 0-.2.1-.5.4-.5.2 0 .5.1.5.4.1.3-.1.5-.4.5zm2.6 4.2l-.6-.4.5-2.7h-.1l-1.5 1.7-.4-.3 2-2.3.5.4-.4 2.7 1.5-1.7.4.3-1.9 2.3zm5.1.7c-.1.2-.2.4-.4.5-.1.1-.3.3-.5.3-.2.1-.4.1-.6.1s-.4-.1-.6-.1c-.2-.1-.4-.2-.5-.4-.2-.1-.3-.3-.3-.5-.1-.2-.1-.4-.1-.6-.2 0-.2-.2-.1-.5.1-.2.2-.4.4-.6.1-.1.3-.3.5-.3.2-.1.4-.1.6-.1s.4.1.6.1c.2.1.4.2.6.4.2.1.3.3.4.5.1.2.1.4.1.6 0 .2 0 .4-.1.6zm-.6-7c-.5-.8-.8-1.6-1.1-2.7-.3-1-.4-2.2-.4-3.5s.1-2.4.4-3.5c.2-1.1.6-2 1.1-2.7s1.1-1.3 1.8-1.7c.8-.4 1.6-.6 2.5-.6s1.7.2 2.4.6c.7.4 1.3 1 1.8 1.7.5.8.8 1.6 1.1 2.7.3 1 .4 2.2.4 3.5s-.1 2.4-.4 3.5c-.3 1.1-.6 2-1.1 2.7-.5.7-1.1 1.3-1.8 1.7-.7.4-1.5.6-2.4.6-1 0-1.8-.2-2.5-.6-.7-.4-1.3-1-1.8-1.7zm4.9 9.1h-.6l.2-2.4-1.1 2.3h-.4l-.7-2.5-.2 2.4h-.5l.2-3 .9.1.6 2.1.9-2h.9l-.2 3zm4-.8l-.6-.5-1.3.3v.7l-.6.1.6-3.2.5-.1 2 2.6-.6.1zm3.5-1.5l-1.9-.7.7 1.3-.5.3-1.4-2.7.4-.2.7 1.1.4-1.7.7-.4-.6 1.9 2.1.7-.6.4zm2.7-2.5c0 .1-.1.2-.1.4l-.3.3c-.1.1-.3.2-.5.3s-.4.1-.6.1v-.5h.4c.1 0 .2-.1.3-.2l.1-.1c0-.1.1-.1.1-.2v-.2c0-.1 0-.1-.1-.2s-.1-.1-.2-.1h-.2c-.1 0-.1 0-.2.1-.1 0-.2.1-.3.1s-.2.1-.3.1c-.1 0-.2.1-.3.1-.1 0-.2 0-.3-.1-.1 0-.2-.1-.3-.2-.1-.1-.2-.2-.2-.4v-.4c0-.1.1-.2.1-.4l.3-.3c.1-.1.2-.2.4-.3.2-.1.3-.1.5-.1l.2.6h-.3c-.1 0-.2.1-.3.2l-.1.1c0 .1-.1.1-.1.2v.2c0 .1 0 .1.1.2 0 0 .1.1.2.1h.2c.1 0 .1 0 .2-.1.1 0 .1-.1.2-.1s.2-.1.3-.1.2-.1.3-.1h.3c.1 0 .2.1.3.2.1.1.2.2.2.4 0 .1.1.3 0 .4zm1.8-3.2l-.7 1.1.4.6-.3.5-1.8-2.7.2-.4 3.2.5-.3.5-.7-.1z"/>
    <g fill="#191817">
        <path d="M4.8 22.7c-.1-.1-.2-.1-.3 0-.1 0-.2.1-.2.2s0 .3.1.5l.1.4.7-.4L5 23c-.1-.2-.1-.3-.2-.3zM16.8 23.1c.4.4.8.6 1.4.6.5 0 1-.2 1.3-.6.3-.4.6-.8.8-1.4.2-.5.3-1.1.4-1.8.1-.6.1-1.2.1-1.7s0-1.1-.1-1.7-.2-1.2-.4-1.8c-.2-.6-.5-1.1-.8-1.5-.3-.4-.7-.6-1.3-.6s-1.1.2-1.4.6c-.3.4-.6.9-.8 1.5-.2.5-.3 1.1-.4 1.8-.1.6-.1 1.2-.1 1.7s0 1.1.1 1.7c.1.6.2 1.2.4 1.8.2.5.5 1 .8 1.4zM5.9 11.6c0-.1 0-.1-.1-.2 0-.1-.1-.1-.2-.1s-.2-.1-.2 0c-.1 0-.1 0-.2.1-.1 0-.1.1-.1.2s-.1.1-.1.2l-.2.4.8.4.2-.6c0-.1.1-.2.1-.2v-.2zM6.1 22.2c0-.1-.1-.1-.1-.2s-.1-.1-.2-.1h-.2c-.1.1-.2.1-.3.3 0 .1 0 .3.1.5l.2.5.8-.3-.2-.5c0-.1-.1-.1-.1-.2zM13.6 30.1c-.1-.1-.2-.2-.4-.2-.1-.1-.3-.1-.4-.1-.1 0-.3 0-.4.1-.1.1-.2.1-.3.2 0 .1-.1.2-.2.4-.1.1-.1.3-.1.4 0 .1 0 .3.1.4 0 .1.1.2.2.3.1.1.2.2.4.2.1.1.3.1.4.1.1 0 .3 0 .4-.1.1-.1.2-.1.3-.2.1-.1.2-.2.2-.4.1-.1.1-.3.1-.4 0-.1 0-.3-.1-.4 0-.1-.1-.2-.2-.3zM7.9 8.7c0-.1.1-.1.1-.2v-.2c0-.1-.1-.1-.1-.2-.1-.1-.1-.1-.2-.1h-.2c-.1 0-.1.1-.2.1s-.1.1-.2.1l-.3.4.6.6.4-.3c.1-.1.1-.1.1-.2zM27.9 17.1c0-.1 0-.2.1-.3 0-.1-.1-.2-.1-.3 0-.1 0-.1-.1-.2 0 0-.1-.1-.2-.1-.1-.1-.2-.1-.3-.1-.1 0-.2.1-.3.1-.1 0-.1 0-.2.1-.1 0-.2.1-.2.2-.1.1-.1.2-.1.3 0 .1.1.2.1.3l.2.2s.1.1.2.1c.1.1.2.1.3.1.1 0 .2-.1.3-.1.1 0 .1 0 .2-.1 0 0 .1-.1.1-.2zM30.8 19.1s-.1-.1-.2-.1c-.1-.1-.2-.1-.3-.1-.1 0-.2.1-.3.1-.1 0-.1 0-.2.1-.1 0-.2.1-.2.2-.1.1-.1.2-.1.3 0 .1.1.2.1.3l.2.2s.1.1.2.1c.1.1.2.1.3.1.1 0 .2-.1.3-.1.1 0 .1 0 .2-.1 0 0 .1-.1.1-.2s0-.2.1-.3c0-.1-.1-.2-.1-.3 0-.1 0-.1-.1-.2zM10.7 7.2c.1.1.2.2.4.2h.4c.1 0 .3-.1.4-.1l.3-.3c.1-.1.1-.2.2-.4v-.4c0-.1-.1-.3-.2-.4l-.3-.3c-.1-.1-.2-.2-.4-.2-.1 0-.3-.1-.4 0-.1 0-.3.1-.4.1l-.3.3c-.1.1-.1.2-.2.4v.4c.1.1.1.2.2.4.1.1.2.3.3.3zM29.8 26.2l.5-.8-1.3-.3zM21 32l1-.2-.8-1.1z"/>
    </g>
</svg>