<svg xmlns="http://www.w3.org/2000/svg" width="34" height="34"><path fill-rule="evenodd" fill="#0060f5" d="M33.746 19.888a17.55 17.55 0 0 1-.535 2.204 12.706 12.706 0 0 0 .649 9.176 1.416 1.416 0 0 1-1.655 1.969l-6.351-1.734A16.847 16.847 0 0 1 17.03 34c-1.126 0-2.26-.112-3.39-.34a16.888 16.888 0 0 1-10.801-7.251C-2.35 18.605-.222 8.035 7.583 2.844A16.935 16.935 0 0 1 19.679.216c.074.001.148.008.221.021a16.9 16.9 0 0 1 10.995 6.958 16.896 16.896 0 0 1 2.851 12.693zM28.577 8.827a14.058 14.058 0 0 0-8.973-5.763 1.54 1.54 0 0 1-.202-.022A14.12 14.12 0 0 0 9.15 5.205C2.645 9.529.873 18.337 5.198 24.841a14.07 14.07 0 0 0 9.001 6.043c3.705.747 7.485.004 10.638-2.092a1.428 1.428 0 0 1 1.159-.185l4.323 1.179a15.588 15.588 0 0 1 .186-8.536c.191-.61.343-1.232.449-1.846a14.072 14.072 0 0 0-2.377-10.577zM16.995 19.691a1.417 1.417 0 0 1-1.417-1.416V9.777c0-.783.634-1.416 1.417-1.416s1.417.633 1.417 1.416v8.498c0 .783-.634 1.416-1.417 1.416zm-1.004 3.384c.07-.057.141-.128.226-.17a.822.822 0 0 1 .241-.128.814.814 0 0 1 .269-.085c.452-.099.949.058 1.274.383.127.127.226.283.297.467.071.17.114.354.114.538 0 .184-.043.368-.114.538-.071.17-.17.326-.297.468a1.656 1.656 0 0 1-.468.297c-.17.071-.354.113-.538.113a1.4 1.4 0 0 1-.537-.113 1.665 1.665 0 0 1-.467-.297 1.637 1.637 0 0 1-.298-.468 1.402 1.402 0 0 1-.113-.538c0-.184.042-.368.113-.538.071-.184.17-.34.298-.467z"/></svg>